<svg width="32" height="32" viewBox="0 0 32 32" fill="none" xmlns="http://www.w3.org/2000/svg">
<path opacity="0.2" d="M10.9998 11.5C10.9998 9.81886 11.4983 8.17548 12.4323 6.77766C13.3663 5.37984 14.6938 4.29037 16.247 3.64703C17.8001 3.00368 19.5092 2.83535 21.158 3.16333C22.8069 3.4913 24.3214 4.30085 25.5102 5.4896C26.6989 6.67834 27.5085 8.1929 27.8365 9.84174C28.1644 11.4906 27.9961 13.1996 27.3528 14.7528C26.7094 16.306 25.6199 17.6335 24.2221 18.5675C22.8243 19.5015 21.1809 20 19.4998 20H9.49978C8.7012 19.9993 7.91235 19.8248 7.18805 19.4884C6.46375 19.1521 5.82138 18.6621 5.30558 18.0525C4.78978 17.4428 4.41292 16.7281 4.20121 15.9581C3.98949 15.1881 3.94799 14.3813 4.07959 13.5936C4.2112 12.806 4.51274 12.0564 4.96328 11.3971C5.41381 10.7377 6.00252 10.1844 6.6885 9.77553C7.37447 9.36667 8.14125 9.1121 8.93554 9.0295C9.72984 8.94691 10.5326 9.03827 11.288 9.29724" fill="white"/>
<path fill-rule="evenodd" clip-rule="evenodd" d="M16.8299 19.1641C17.2916 19.4671 17.4203 20.087 17.1173 20.5488L14.8524 24.0001H19.2813C19.6487 24.0001 19.9866 24.2017 20.1612 24.5251C20.3358 24.8484 20.3189 25.2415 20.1173 25.5488L16.836 30.5488C16.533 31.0105 15.9131 31.1392 15.4513 30.8362C14.9896 30.5331 14.8609 29.9132 15.164 29.4515L17.4289 26.0001H13C12.6325 26.0001 12.2946 25.7985 12.12 25.4752C11.9455 25.1518 11.9623 24.7587 12.164 24.4515L15.4452 19.4515C15.7482 18.9897 16.3682 18.8611 16.8299 19.1641Z" fill="#9CB8FF"/>
<path fill-rule="evenodd" clip-rule="evenodd" d="M8.8326 8.03487C9.43348 7.97238 10.0385 7.99414 10.6302 8.09816C10.8819 7.44197 11.2068 6.81243 11.6013 6.22209C12.6452 4.65982 14.1289 3.44218 15.8648 2.72315C17.6007 2.00412 19.5108 1.81598 21.3536 2.18254C23.1964 2.5491 24.8892 3.45389 26.2178 4.78249C27.5464 6.11109 28.4512 7.80383 28.8177 9.64665C29.1843 11.4895 28.9962 13.3996 28.2771 15.1355C27.5581 16.8714 26.3405 18.3551 24.7782 19.399C23.2159 20.4428 21.3792 21 19.5003 21H9.49943C8.55565 20.9992 7.62338 20.7929 6.76739 20.3954C5.91139 19.998 5.15223 19.4189 4.54264 18.6984C3.93306 17.9779 3.48769 17.1333 3.23748 16.2233C2.98727 15.3133 2.93822 14.3597 3.09375 13.4288C3.24928 12.498 3.60566 11.6121 4.13811 10.8329C4.67056 10.0537 5.36631 9.39972 6.177 8.91653C6.9877 8.43334 7.89389 8.13248 8.8326 8.03487Z" fill="white"/>
</svg>
