<svg width="32" height="32" viewBox="0 0 32 32" fill="none" xmlns="http://www.w3.org/2000/svg">
<path fill-rule="evenodd" clip-rule="evenodd" d="M17.1174 20.5488C17.4204 20.087 17.2918 19.4671 16.83 19.1641C16.3683 18.8611 15.7483 18.9897 15.4453 19.4515L11.5078 25.4515C11.2048 25.9132 11.3335 26.5331 11.7952 26.8362C12.2569 27.1392 12.8769 27.0105 13.1799 26.5488L17.1174 20.5488ZM20.1174 25.5488C20.4204 25.087 20.2918 24.4671 19.83 24.1641C19.3683 23.8611 18.7483 23.9897 18.4453 24.4515L15.1641 29.4515C14.8611 29.9132 14.9897 30.5331 15.4515 30.8362C15.9132 31.1392 16.5331 31.0105 16.8362 30.5488L20.1174 25.5488Z" fill="#9CB8FF"/>
<path fill-rule="evenodd" clip-rule="evenodd" d="M8.8326 8.03487C9.43348 7.97238 10.0385 7.99414 10.6302 8.09816C10.8819 7.44197 11.2068 6.81243 11.6013 6.22209C12.6452 4.65982 14.1289 3.44218 15.8648 2.72315C17.6007 2.00412 19.5108 1.81598 21.3536 2.18254C23.1964 2.5491 24.8892 3.45389 26.2178 4.78249C27.5464 6.11109 28.4512 7.80383 28.8177 9.64665C29.1843 11.4895 28.9962 13.3996 28.2771 15.1355C27.5581 16.8714 26.3405 18.3551 24.7782 19.399C23.2159 20.4428 21.3792 21 19.5003 21H9.49943C8.55565 20.9992 7.62338 20.7929 6.76739 20.3954C5.91139 19.998 5.15223 19.4189 4.54264 18.6984C3.93306 17.9779 3.48769 17.1333 3.23748 16.2233C2.98727 15.3133 2.93822 14.3597 3.09375 13.4288C3.24928 12.498 3.60566 11.6121 4.13811 10.8329C4.67056 10.0537 5.36631 9.39972 6.177 8.91653C6.9877 8.43334 7.89389 8.13248 8.8326 8.03487Z" fill="white"/>
</svg>
