<svg width="32" height="32" viewBox="0 0 32 32" fill="none" xmlns="http://www.w3.org/2000/svg">
<path d="M19.5 31C20.3284 31 21 30.3284 21 29.5C21 28.6716 20.3284 28 19.5 28C18.6716 28 18 28.6716 18 29.5C18 30.3284 18.6716 31 19.5 31Z" fill="white"/>
<path d="M8.5 31C9.32843 31 10 30.3284 10 29.5C10 28.6716 9.32843 28 8.5 28C7.67157 28 7 28.6716 7 29.5C7 30.3284 7.67157 31 8.5 31Z" fill="white"/>
<path d="M14.5 28C15.3284 28 16 27.3284 16 26.5C16 25.6716 15.3284 25 14.5 25C13.6716 25 13 25.6716 13 26.5C13 27.3284 13.6716 28 14.5 28Z" fill="white"/>
<path d="M20.5 26C21.3284 26 22 25.3284 22 24.5C22 23.6716 21.3284 23 20.5 23C19.6716 23 19 23.6716 19 24.5C19 25.3284 19.6716 26 20.5 26Z" fill="white"/>
<path d="M9.5 26C10.3284 26 11 25.3284 11 24.5C11 23.6716 10.3284 23 9.5 23C8.67157 23 8 23.6716 8 24.5C8 25.3284 8.67157 26 9.5 26Z" fill="white"/>
<path fill-rule="evenodd" clip-rule="evenodd" d="M8.8326 8.03487C9.43348 7.97238 10.0385 7.99414 10.6302 8.09816C10.8819 7.44197 11.2068 6.81243 11.6013 6.22209C12.6452 4.65982 14.1289 3.44218 15.8648 2.72315C17.6007 2.00412 19.5108 1.81598 21.3536 2.18254C23.1964 2.5491 24.8892 3.45389 26.2178 4.78249C27.5464 6.11109 28.4512 7.80383 28.8177 9.64665C29.1843 11.4895 28.9962 13.3996 28.2771 15.1355C27.5581 16.8714 26.3405 18.3551 24.7782 19.399C23.2159 20.4428 21.3792 21 19.5003 21H9.49943C8.55565 20.9992 7.62338 20.7929 6.76739 20.3954C5.91139 19.998 5.15223 19.4189 4.54264 18.6984C3.93306 17.9779 3.48769 17.1333 3.23748 16.2233C2.98727 15.3133 2.93822 14.3597 3.09375 13.4288C3.24928 12.498 3.60566 11.6121 4.13811 10.8329C4.67056 10.0537 5.36631 9.39972 6.177 8.91653C6.9877 8.43334 7.89389 8.13248 8.8326 8.03487Z" fill="white"/>
</svg>
